# Blender v2.79 (sub 0) OBJ File: 'ico.blend'
# www.blender.org
mtllib ico.mtl
o Icosphere
v -0.434213 -1.364906 0.016411
v 0.552532 -0.625847 0.713030
v -0.789779 -0.615183 1.163859
v -1.647303 -0.615177 0.016411
v -0.820995 -0.615183 -1.153717
v 0.552532 -0.625847 -0.713030
v -0.040061 0.597926 1.163860
v -1.415625 0.597926 0.729441
v -1.427549 0.597926 -0.713030
v -0.059354 0.597926 -1.170128
v 0.798171 0.597921 -0.010143
v -0.411624 1.364906 0.000000
v -0.646081 -1.170135 0.668486
v 0.163521 -1.151991 0.430400
v -0.086501 -0.717582 1.109557
v 0.732095 -0.717641 0.017314
v 0.163521 -1.151991 -0.430400
v -1.131705 -1.170132 0.000093
v -1.378337 -0.717580 0.668488
v -0.646081 -1.170135 -0.668300
v -1.358051 -0.717580 -0.696409
v -0.053647 -0.717643 -1.098799
v 0.866323 -0.014838 0.430401
v 0.872028 0.014679 -0.413145
v -0.437903 -0.014777 1.364870
v 0.366052 0.014679 1.109564
v -1.729739 -0.014777 0.413181
v -1.238492 0.014679 1.098899
v -1.223831 -0.014777 -1.109506
v -1.724181 0.014679 -0.430401
v 0.380701 -0.014838 -1.098806
v -0.419808 0.014679 -1.364906
v 0.500272 0.717483 0.696467
v -0.804144 0.717484 1.098892
v -1.589953 0.717482 -0.017314
v -0.771211 0.717484 -1.109593
v 0.520626 0.717482 -0.668453
v -0.202528 1.151833 0.696465
v 0.274012 1.170132 0.000000
v -1.021312 1.151832 0.430493
v -1.021379 1.151832 -0.430400
v -0.202638 1.151833 -0.696500
vn 0.1147 -0.9410 0.3183
vn 0.7002 -0.6617 0.2680
vn -0.2680 -0.9435 0.1947
vn -0.2600 -0.9469 -0.1889
vn 0.1104 -0.9465 -0.3034
vn 0.9008 -0.3347 0.2767
vn 0.0247 -0.3304 0.9435
vn -0.8897 -0.3304 0.3151
vn -0.5746 -0.3304 -0.7488
vn 0.5415 -0.3347 -0.7712
vn 0.7950 -0.1347 0.5915
vn -0.3169 -0.1289 0.9397
vn -0.9916 -0.1289 -0.0110
vn -0.2959 -0.1289 -0.9465
vn 0.8082 -0.1347 -0.5733
vn 0.4055 0.6561 0.6365
vn -0.4801 0.6561 0.5823
vn -0.7022 0.6561 -0.2767
vn 0.0461 0.6561 -0.7533
vn 0.7232 0.6657 -0.1840
vn 0.2673 0.9410 -0.2077
vn 0.4911 0.7946 -0.3569
vn 0.4155 0.6508 -0.6354
vn -0.1038 0.9420 -0.3193
vn -0.1876 0.7947 -0.5773
vn -0.4760 0.6508 -0.5915
vn -0.3299 0.9440 0.0000
vn -0.6070 0.7947 0.0000
vn -0.7096 0.6508 0.2699
vn -0.1037 0.9420 0.3193
vn -0.1875 0.7947 0.5773
vn 0.0374 0.6508 0.7583
vn 0.2673 0.9410 0.2076
vn 0.4911 0.7946 0.3569
vn 0.7251 0.6608 0.1939
vn 0.8897 0.3304 -0.3151
vn 0.7946 0.1875 -0.5775
vn 0.5783 0.3284 -0.7468
vn -0.0247 0.3304 -0.9435
vn -0.3036 0.1876 -0.9342
vn -0.5316 0.3285 -0.7807
vn -0.9050 0.3304 -0.2680
vn -0.9823 0.1876 0.0001
vn -0.9068 0.3285 0.2643
vn -0.5346 0.3304 0.7779
vn -0.3035 0.1876 0.9342
vn -0.0289 0.3285 0.9441
vn 0.5746 0.3304 0.7488
vn 0.7947 0.1875 0.5773
vn 0.8890 0.3284 0.3192
vn 0.3172 0.1182 -0.9410
vn 0.3036 -0.1876 -0.9341
vn 0.0233 -0.3311 -0.9433
vn -0.7970 0.1183 -0.5923
vn -0.7947 -0.1876 -0.5773
vn -0.8900 -0.3311 -0.3136
vn -0.8096 0.1183 0.5749
vn -0.7947 -0.1876 0.5773
vn -0.5732 -0.3311 0.7495
vn 0.2966 0.1183 0.9476
vn 0.3035 -0.1876 0.9342
vn 0.5316 -0.3285 0.7807
vn 0.9929 0.1182 0.0109
vn 0.9822 -0.1876 0.0001
vn 0.9068 -0.3286 -0.2642
vn 0.4713 -0.6617 -0.5831
vn 0.1875 -0.7947 -0.5773
vn -0.0353 -0.6642 -0.7467
vn -0.4021 -0.6713 -0.6226
vn -0.4911 -0.7947 -0.3568
vn -0.7211 -0.6642 -0.1972
vn -0.7165 -0.6712 0.1901
vn -0.4911 -0.7947 0.3568
vn -0.4104 -0.6641 0.6249
vn 0.7062 -0.6599 -0.2566
vn 0.6071 -0.7947 0.0000
vn 0.3356 -0.9420 0.0000
vn -0.0406 -0.6712 0.7402
vn 0.1876 -0.7947 0.5773
vn 0.4623 -0.6599 0.5923
usemtl None
s off
f 1//1 14//1 13//1
f 2//2 14//2 16//2
f 1//3 13//3 18//3
f 1//4 18//4 20//4
f 1//5 20//5 17//5
f 2//6 16//6 23//6
f 3//7 15//7 25//7
f 4//8 19//8 27//8
f 5//9 21//9 29//9
f 6//10 22//10 31//10
f 2//11 23//11 26//11
f 3//12 25//12 28//12
f 4//13 27//13 30//13
f 5//14 29//14 32//14
f 6//15 31//15 24//15
f 7//16 33//16 38//16
f 8//17 34//17 40//17
f 9//18 35//18 41//18
f 10//19 36//19 42//19
f 11//20 37//20 39//20
f 39//21 42//21 12//21
f 39//22 37//22 42//22
f 37//23 10//23 42//23
f 42//24 41//24 12//24
f 42//25 36//25 41//25
f 36//26 9//26 41//26
f 41//27 40//27 12//27
f 41//28 35//28 40//28
f 35//29 8//29 40//29
f 40//30 38//30 12//30
f 40//31 34//31 38//31
f 34//32 7//32 38//32
f 38//33 39//33 12//33
f 38//34 33//34 39//34
f 33//35 11//35 39//35
f 24//36 37//36 11//36
f 24//37 31//37 37//37
f 31//38 10//38 37//38
f 32//39 36//39 10//39
f 32//40 29//40 36//40
f 29//41 9//41 36//41
f 30//42 35//42 9//42
f 30//43 27//43 35//43
f 27//44 8//44 35//44
f 28//45 34//45 8//45
f 28//46 25//46 34//46
f 25//47 7//47 34//47
f 26//48 33//48 7//48
f 26//49 23//49 33//49
f 23//50 11//50 33//50
f 31//51 32//51 10//51
f 31//52 22//52 32//52
f 22//53 5//53 32//53
f 29//54 30//54 9//54
f 29//55 21//55 30//55
f 21//56 4//56 30//56
f 27//57 28//57 8//57
f 27//58 19//58 28//58
f 19//59 3//59 28//59
f 25//60 26//60 7//60
f 25//61 15//61 26//61
f 15//62 2//62 26//62
f 23//63 24//63 11//63
f 23//64 16//64 24//64
f 16//65 6//65 24//65
f 17//66 22//66 6//66
f 17//67 20//67 22//67
f 20//68 5//68 22//68
f 20//69 21//69 5//69
f 20//70 18//70 21//70
f 18//71 4//71 21//71
f 18//72 19//72 4//72
f 18//73 13//73 19//73
f 13//74 3//74 19//74
f 16//75 17//75 6//75
f 16//76 14//76 17//76
f 14//77 1//77 17//77
f 13//78 15//78 3//78
f 13//79 14//79 15//79
f 14//80 2//80 15//80
